<svg width="557" height="32" viewBox="0 0 557 32" fill="none" xmlns="http://www.w3.org/2000/svg">
<path d="M535.13 19.3474L546.1 0.709473L556.938 19.3474L546.1 31.3421L535.13 19.3474Z" fill="white"/>
<path d="M0.129883 26.9595V0.709473H22.6299V4.45947H26.3799V15.7095H22.6299V19.4595H7.62988V26.9595H0.129883ZM7.62988 15.7095H18.8799V4.45947H7.62988V15.7095ZM34.7799 26.9595V0.709473H42.2799V23.2095H57.2799V26.9595H34.7799ZM61.9299 26.9595V8.20947H65.6799V4.45947H69.4299V0.709473H80.6799V4.45947H84.4299V8.20947H88.1799V26.9595H80.6799V19.4595H69.4299V26.9595H61.9299ZM69.4299 15.7095H80.6799V8.20947H76.9299V4.45947H73.1799V8.20947H69.4299V15.7095ZM104.08 26.9595V15.7095H100.33V11.9595H96.5799V0.709473H104.08V11.9595H111.58V0.709473H119.08V11.9595H115.33V15.7095H111.58V26.9595H104.08ZM131.23 26.9595V19.4595H138.73V26.9595H131.23ZM154.63 26.9595V0.709473H180.88V4.45947H162.13V11.9595H177.13V15.7095H162.13V23.2095H180.88V26.9595H154.63ZM185.53 26.9595V8.20947H189.28V4.45947H193.03V0.709473H204.28V4.45947H208.03V8.20947H211.78V26.9595H204.28V19.4595H193.03V26.9595H185.53ZM193.03 15.7095H204.28V8.20947H200.53V4.45947H196.78V8.20947H193.03V15.7095ZM216.43 26.9595V0.709473H238.93V4.45947H242.68V15.7095H235.18V19.4595H238.93V23.2095H242.68V26.9595H231.43V23.2095H227.68V19.4595H223.93V26.9595H216.43ZM223.93 15.7095H231.43V11.9595H235.18V4.45947H223.93V15.7095ZM247.33 26.9595V0.709473H254.83V4.45947H258.58V8.20947H262.33V11.9595H266.08V0.709473H273.58V26.9595H266.08V19.4595H262.33V15.7095H258.58V11.9595H254.83V26.9595H247.33ZM285.73 26.9595V19.4595H293.23V26.9595H285.73ZM316.63 26.9595V23.2095H312.88V19.4595H309.13V8.20947H312.88V4.45947H316.63V0.709473H331.63V4.45947H335.38V8.20947H327.88V4.45947H320.38V8.20947H316.63V19.4595H320.38V23.2095H327.88V19.4595H335.38V23.2095H331.63V26.9595H316.63ZM343.78 26.9595V23.2095H340.03V4.45947H343.78V0.709473H362.53V4.45947H366.28V23.2095H362.53V26.9595H343.78ZM347.53 23.2095H358.78V4.45947H347.53V23.2095ZM370.93 26.9595V0.709473H378.43V4.45947H382.18V8.20947H385.93V4.45947H389.68V0.709473H397.18V26.9595H389.68V11.9595H385.93V19.4595H382.18V11.9595H378.43V26.9595H370.93ZM401.83 26.9595V0.709473H424.33V4.45947H428.08V15.7095H424.33V19.4595H409.33V26.9595H401.83ZM409.33 15.7095H420.58V4.45947H409.33V15.7095ZM432.73 26.9595V0.709473H458.98V4.45947H440.23V11.9595H455.23V15.7095H440.23V23.2095H458.98V26.9595H432.73ZM474.88 26.9595V4.45947H467.38V0.709473H489.88V4.45947H482.38V26.9595H474.88ZM494.53 26.9595V0.709473H520.78V4.45947H502.03V11.9595H517.03V15.7095H502.03V23.2095H520.78V26.9595H494.53Z" fill="url(#paint0_linear_768_100)"/>
<defs>
<linearGradient id="paint0_linear_768_100" x1="0.129883" y1="15.7095" x2="525.13" y2="15.7095" gradientUnits="userSpaceOnUse">
<stop stop-color="#FF2E00"/>
<stop offset="1" stop-color="#FFB800"/>
</linearGradient>
</defs>
</svg>
